<svg xmlns="http://www.w3.org/2000/svg" xmlns:xlink="http://www.w3.org/1999/xlink" width="1080" zoomAndPan="magnify" viewBox="0 0 810 809.999993" height="1080" preserveAspectRatio="xMidYMid meet" version="1.0"><path fill="#000000" d="M 749.515625 191.871094 C 749.550781 191.792969 749.585938 191.734375 749.601562 191.683594 C 750.082031 190.398438 749.433594 188.957031 748.144531 188.46875 C 747.882812 188.367188 747.628906 188.507812 747.351562 188.492188 C 675.390625 75.457031 549.066406 0.246094 405.421875 0.246094 C 313.300781 0.246094 228.304688 31.214844 160.15625 83.199219 C 159.367188 83.351562 158.808594 83.835938 158.460938 84.539062 C 62.335938 158.699219 0.246094 274.917969 0.246094 405.441406 C 0.246094 628.847656 182.007812 810.601562 405.421875 810.601562 C 628.820312 810.601562 810.585938 628.835938 810.585938 405.441406 C 810.585938 327.082031 788.171875 253.925781 749.515625 191.871094 Z M 740.671875 604.824219 C 717.589844 618.730469 689.660156 630.859375 657.996094 640.976562 C 666.789062 602.058594 672.113281 565.214844 674.542969 530.335938 C 708.121094 519.210938 737.292969 505.863281 760.757812 490.757812 C 761.644531 518.332031 760.953125 544.867188 759.25 569.726562 C 753.636719 581.761719 747.453125 593.484375 740.671875 604.824219 Z M 241.238281 756.5 C 232.089844 747.207031 223.574219 737.699219 215.636719 727.984375 C 240.789062 734.847656 270.371094 741.457031 303.136719 746.511719 C 312.480469 761.703125 323.355469 776.066406 335.984375 789.332031 C 302.839844 783.363281 271.152344 773.214844 241.460938 759.429688 C 242 758.464844 242.035156 757.304688 241.238281 756.5 Z M 233.65625 755.703125 C 209.109375 743.617188 186.046875 728.992188 164.734375 712.222656 C 176.632812 716.40625 191.066406 721.050781 207.535156 725.714844 C 215.585938 735.933594 224.277344 745.929688 233.65625 755.703125 Z M 210.449219 721.367188 C 191.742188 697.464844 176.652344 672.417969 165.15625 646.230469 C 196.847656 656.183594 232.234375 664.097656 269.949219 669.820312 C 277.042969 694.914062 286.828125 718.785156 299.75 740.933594 C 265.972656 735.566406 235.789062 728.492188 210.449219 721.367188 Z M 43.511719 477.628906 C 43.523438 510.308594 47.6875 544.765625 57.046875 580.914062 C 37.039062 541.320312 23.570312 497.925781 18.085938 452.101562 C 24.867188 460.996094 33.40625 469.496094 43.511719 477.628906 Z M 65.847656 594.230469 C 54.195312 554.617188 48.914062 517.0625 48.574219 481.554688 C 70.613281 498.121094 99.324219 512.847656 133.207031 525.230469 C 134.332031 564.6875 142.050781 602.34375 156.261719 638.054688 C 120.265625 625.933594 89.421875 611.191406 65.847656 594.230469 Z M 70.039062 352 C 92.425781 366.632812 120.535156 379.667969 152.910156 390.644531 C 141.585938 427.648438 134.347656 465.652344 133.171875 503.945312 C 133.019531 509.097656 133.019531 514.226562 133.070312 519.3125 C 98.882812 506.652344 70.097656 491.6875 48.5 474.945312 C 48.804688 430.636719 56.851562 389.585938 70.039062 352 Z M 51.578125 241.171875 C 59.976562 227.746094 69.117188 215.09375 78.808594 203.101562 C 87.441406 217.652344 101.738281 231.21875 120.679688 243.472656 C 99.738281 273.621094 81.1875 307.335938 67.5 344.449219 C 50.265625 332.429688 36.910156 319.378906 28.21875 305.53125 C 34.125 283.222656 41.988281 261.714844 51.578125 241.171875 Z M 70.503906 205.429688 C 72.164062 202.660156 73.90625 199.953125 75.625 197.21875 C 75.820312 197.625 76.007812 198.03125 76.183594 198.429688 C 74.296875 200.746094 72.359375 203.050781 70.503906 205.429688 Z M 202.027344 72.542969 C 202.695312 72.417969 203.550781 72.359375 205.015625 72.289062 C 208.441406 72.121094 205.488281 73.679688 205.015625 74.929688 C 204.558594 76.175781 201.289062 80.222656 199.25 82.09375 C 197.234375 83.960938 195.832031 85.207031 194.425781 89.710938 C 193.039062 94.222656 194.425781 93.136719 195.832031 90.488281 C 197.234375 87.847656 200.179688 85.671875 205.328125 81.777344 C 210.457031 77.894531 208.753906 79.90625 211.402344 78.664062 C 214.042969 77.417969 216.066406 76.183594 219.496094 74.304688 C 222.921875 72.433594 221.207031 73.070312 223.695312 70.25 C 226.183594 67.457031 227.746094 67.769531 230.695312 65.425781 C 233.65625 63.097656 235.203125 62.785156 236.449219 61.542969 C 237.703125 60.304688 238.328125 59.824219 239.742188 57.800781 C 241.128906 55.777344 243.007812 55.480469 244.71875 52.984375 C 246.429688 50.488281 247.359375 50.488281 248.773438 48.617188 C 248.949219 48.378906 248.976562 48.203125 249.085938 48 C 256.636719 44.679688 264.285156 41.523438 272.082031 38.679688 C 274.078125 42.445312 276.941406 46.070312 280.578125 49.515625 C 266.394531 55.820312 251.566406 62.980469 236.421875 71.039062 C 235.976562 71.132812 235.492188 71.242188 234.910156 71.34375 C 233.546875 71.578125 234.171875 71.496094 233.105469 72.78125 C 227.484375 75.820312 221.804688 79.003906 216.128906 82.304688 C 214.917969 82.652344 213.6875 83.828125 211.871094 84.4375 C 209.992188 85.046875 209.6875 85.671875 207.816406 86.917969 C 207.679688 87 207.746094 87.203125 207.644531 87.3125 C 195.59375 94.542969 183.515625 102.296875 171.523438 110.726562 C 168.730469 106.664062 166.648438 102.472656 165.226562 98.222656 C 176.988281 89 189.238281 80.390625 202.027344 72.542969 Z M 208.085938 92.796875 C 208.289062 93.761719 208.417969 94.6875 208.128906 95.320312 C 207.1875 97.496094 208.128906 95.320312 205.945312 95.625 C 204.109375 95.886719 203.480469 96.386719 201.136719 97.097656 C 203.464844 95.644531 205.785156 94.203125 208.085938 92.796875 Z M 583.910156 66.1875 C 586.289062 68.582031 588.523438 70.699219 590.15625 71.34375 C 593.261719 72.59375 595.742188 74.457031 598.554688 76.632812 C 601.347656 78.832031 617.546875 98.4375 617.546875 98.4375 C 617.546875 98.4375 618.484375 111.511719 628.753906 114.304688 C 635.8125 116.242188 640.390625 118.15625 643.351562 119.875 C 638.511719 124.851562 632.6875 129.632812 625.941406 134.171875 C 619.460938 127.558594 612.984375 121.296875 606.601562 115.492188 C 580.652344 91.902344 554.226562 73.367188 529.714844 58.714844 C 534.101562 56.066406 538.011719 53.253906 541.304688 50.316406 C 555.792969 55.226562 570.242188 60.535156 583.910156 66.1875 Z M 653.671875 122.09375 C 659.273438 120.535156 658.960938 122.40625 665.488281 126.460938 C 672.027344 130.515625 671.105469 128.644531 673.898438 135.804688 C 676.710938 142.964844 677.320312 137.988281 677.320312 147.316406 C 677.320312 156.660156 683.84375 162.566406 682.921875 168.796875 C 682 175.027344 685.578125 179.082031 683.023438 184.371094 C 680.425781 189.660156 676.378906 191.53125 678.894531 194.644531 C 681.375 197.761719 680.128906 197.132812 686.054688 198.386719 C 691.953125 199.621094 703.480469 202.425781 706.605469 204.914062 C 709.710938 207.402344 710.660156 211.769531 709.085938 213.941406 C 707.527344 216.117188 706.273438 215.804688 698.503906 221.105469 C 696.835938 222.222656 695.433594 222.984375 694.101562 223.675781 C 686.613281 210.894531 678.808594 198.878906 670.777344 187.671875 C 672.527344 186.648438 674.050781 185.308594 674.628906 183.558594 C 675.253906 181.679688 673.390625 182.914062 674.628906 179.605469 C 675.878906 176.277344 674.839844 178.980469 675.878906 176.277344 C 676.921875 173.578125 677.117188 172.34375 677.117188 172.34375 C 677.117188 172.34375 678.765625 170.871094 679.179688 170.050781 C 679.613281 169.21875 679.789062 168.8125 679.179688 166.113281 C 678.570312 163.40625 679.179688 164.226562 677.3125 162.160156 C 675.441406 160.085938 674.398438 159.257812 672.75 158.640625 C 671.097656 158.011719 670.253906 157.597656 669.210938 157.402344 C 668.1875 157.191406 668.1875 158.011719 666.316406 156.777344 C 664.445312 155.535156 663.9375 154.898438 661.703125 154.28125 C 659.46875 153.664062 659.6875 153.867188 656.972656 152.621094 C 654.253906 151.378906 653.238281 150.742188 652.199219 150.328125 C 651.15625 149.921875 654.050781 152.410156 651.15625 149.921875 C 648.261719 147.425781 649.109375 148.457031 648.261719 147.425781 C 647.417969 146.390625 648.035156 148.050781 646.179688 144.9375 C 644.308594 141.820312 644.308594 141.820312 644.308594 141.820312 L 641.601562 140.367188 C 641.601562 140.367188 642.449219 139.148438 640.375 139.535156 C 639.511719 139.699219 638.503906 140.367188 637.25 139.535156 C 636.015625 138.714844 635.378906 136.617188 634.753906 137.464844 C 634.230469 138.191406 632.011719 138.84375 632.585938 141.136719 C 631.460938 139.960938 630.351562 138.757812 629.246094 137.597656 C 636.183594 132.902344 642.183594 127.957031 647.214844 122.804688 C 648.625 124.097656 648.796875 123.457031 653.671875 122.09375 Z M 721.550781 208.964844 C 720.300781 206.164062 720.300781 199.621094 725.902344 199.308594 C 729.855469 199.097656 735.109375 201.773438 737.9375 203.390625 C 734.246094 208.992188 729.6875 214.460938 724.285156 219.742188 C 723.863281 212.671875 722.703125 211.597656 721.550781 208.964844 Z M 726.902344 305.253906 C 727.265625 308.796875 726.519531 312.878906 726.519531 315.441406 C 726.519531 318.253906 723.414062 321.671875 722.167969 327.597656 C 720.917969 333.503906 718.421875 330.398438 718.421875 342.230469 C 718.421875 348.113281 718.054688 357.09375 718.699219 365.863281 C 703.371094 373.328125 686.417969 380.234375 668 386.457031 C 661.007812 345.101562 649.996094 307.832031 636.726562 274.585938 C 660.542969 266.25 681.425781 256.585938 698.734375 245.828125 C 700.585938 248.324219 702.085938 250.753906 702.847656 253.808594 C 703.804688 257.542969 705.03125 259.726562 707.230469 260.976562 C 707.714844 261.25 708.152344 261.351562 708.617188 261.402344 C 715.484375 275.867188 721.585938 290.515625 726.902344 305.253906 Z M 536.417969 508.910156 C 535.777344 508.683594 535.226562 508.515625 534.4375 508.183594 C 529.148438 506 527.898438 509.722656 527.898438 506.949219 C 527.898438 504.121094 527.898438 505.078125 526.339844 502.894531 C 524.765625 500.710938 521.972656 500.085938 517.925781 498.507812 C 513.871094 496.953125 515.429688 498.214844 513.871094 498.214844 C 512.3125 498.214844 510.453125 499.136719 507.023438 496.34375 C 503.597656 493.550781 507.023438 496.34375 506.710938 495.421875 C 506.398438 494.480469 508.269531 492.59375 508.269531 492.59375 C 508.269531 492.59375 508.269531 492.59375 506.398438 492.59375 C 504.527344 492.59375 503.917969 491.367188 502.664062 490.113281 C 501.429688 488.859375 499.246094 486.992188 496.453125 486.992188 C 493.644531 486.992188 494.878906 487.617188 492.398438 488.566406 C 489.902344 489.488281 480.878906 489.488281 480.878906 489.488281 C 480.878906 489.488281 477.773438 489.488281 475.277344 489.488281 C 472.78125 489.488281 473.390625 489.488281 471.222656 489.488281 C 469.039062 489.488281 464.992188 488.566406 464.992188 488.566406 C 464.992188 488.566406 463.121094 487.3125 459.703125 486.085938 C 456.28125 484.847656 458.144531 484.214844 455.023438 483.902344 C 451.914062 483.585938 452.230469 486.085938 450.671875 488.25 C 449.113281 490.433594 450.671875 488.25 448.488281 489.488281 C 446.304688 490.738281 446.929688 492.921875 447.253906 493.855469 C 447.546875 494.792969 447.253906 497.585938 447.253906 497.585938 C 447.253906 497.585938 444.128906 498.839844 442.257812 497.898438 C 440.386719 496.960938 443.199219 489.816406 443.199219 487.304688 C 443.199219 484.839844 443.199219 487.304688 443.492188 485.136719 C 443.824219 482.953125 446.304688 482.03125 445.992188 481.082031 C 445.695312 480.144531 441.015625 483.578125 439.777344 483.890625 C 438.527344 484.207031 434.785156 486.703125 430.121094 490.105469 C 425.441406 493.542969 427.3125 491.664062 424.8125 492.289062 C 422.335938 492.914062 422.335938 492.914062 420.167969 496.019531 C 417.964844 499.128906 418.914062 498.203125 417.964844 498.832031 C 417.042969 499.441406 413.617188 506.929688 413.617188 506.929688 L 409.5625 505.695312 C 409.5625 505.695312 409.5625 505.695312 407.074219 503.183594 C 404.585938 500.703125 407.074219 496.335938 405.421875 494.472656 C 405.050781 494.074219 404.222656 494.074219 403.179688 494.277344 C 403.0625 478.339844 403.003906 462.328125 403.027344 446.253906 C 403.5625 446.457031 404.238281 446.652344 405.421875 446.980469 C 409.5625 448.089844 407.074219 447.761719 409.5625 448.089844 C 412.058594 448.402344 410.804688 450.570312 414.226562 448.089844 C 417.660156 445.59375 417.660156 447.152344 417.660156 445.59375 C 417.660156 444.035156 413.609375 441.226562 410.96875 442.488281 C 407.71875 444.011719 403.957031 441.5625 403.035156 442.488281 C 403.035156 437.90625 403.0625 433.328125 403.070312 428.75 C 403.773438 428.765625 404.476562 428.765625 405.160156 428.765625 C 404.820312 429.230469 404.492188 429.628906 405.414062 430.339844 C 407.066406 431.59375 400.300781 430.652344 405.550781 433.449219 C 410.804688 436.257812 410.484375 436.257812 414.226562 435.945312 C 417.964844 435.632812 417.957031 437.46875 421.402344 436.097656 C 424.804688 434.707031 427.929688 432.820312 427.929688 432.820312 C 427.929688 432.820312 431.964844 432.210938 426.371094 430.652344 C 422.316406 429.511719 419.59375 429.511719 417.214844 428.800781 C 459.378906 428.539062 500.253906 425.675781 538.714844 420.515625 C 539.246094 448.285156 538.550781 477.78125 536.417969 508.910156 Z M 359.125 457.433594 C 356.644531 456.808594 342.628906 456.808594 339.523438 456.808594 C 336.40625 456.808594 340.148438 449.316406 340.453125 447.769531 C 340.765625 446.226562 341.699219 443.417969 342.332031 441.554688 C 342.96875 439.695312 343.882812 438.136719 344.8125 435.953125 C 345.753906 433.785156 345.421875 434.082031 346.386719 431.914062 C 347.308594 429.730469 347.9375 429.105469 348.242188 427.546875 C 348.308594 427.25 348.359375 427.023438 348.417969 426.804688 C 364.71875 427.84375 381.308594 428.503906 398.128906 428.722656 C 398.027344 451.203125 398.066406 473.675781 398.246094 495.953125 C 395.105469 497.257812 391.796875 498.847656 390.28125 499.144531 C 387.175781 499.769531 385.289062 499.457031 383.121094 499.144531 C 380.9375 498.847656 376.578125 496.351562 375.332031 495.105469 C 374.097656 493.855469 372.226562 492.296875 372.226562 492.296875 C 372.226562 492.296875 370.347656 489.488281 369.425781 488.242188 C 368.476562 486.992188 368.808594 486.390625 368.183594 485.449219 C 367.554688 484.511719 368.476562 477.976562 368.476562 475.808594 C 368.476562 473.609375 370.660156 471.746094 370.355469 470.503906 C 370.035156 469.25 361.621094 458.042969 359.125 457.433594 Z M 325.507812 437.804688 C 323.941406 439.058594 322.085938 439.363281 318.03125 439.363281 C 313.988281 439.363281 311.492188 439.363281 309 439.066406 C 306.523438 438.753906 305.582031 438.441406 304.015625 437.816406 C 302.46875 437.207031 297.160156 436.578125 293.742188 433.777344 C 290.320312 430.96875 293.742188 433.777344 292.503906 430.652344 C 291.253906 427.546875 290.320312 426.285156 287.824219 423.808594 C 286.714844 422.699219 285.777344 421.589844 285.03125 420.53125 C 301.332031 422.730469 318.066406 424.5 335.15625 425.839844 C 333.105469 426.8125 334.25 427.210938 332.363281 428.148438 C 329.855469 429.382812 330.484375 430.644531 327.0625 436.5625 C 323.628906 442.488281 327.0625 436.570312 325.507812 437.804688 Z M 670.464844 186.664062 C 670.464844 186.664062 670.34375 186.800781 670.269531 186.925781 C 666.796875 182.136719 663.3125 177.464844 659.789062 172.960938 C 659.492188 171.640625 659.339844 171.117188 657.84375 170.480469 C 653.246094 164.648438 648.585938 159.019531 643.921875 153.664062 C 646.628906 154.417969 646.816406 154.019531 648.050781 154.898438 C 649.523438 155.929688 649.9375 158.214844 651.394531 159.054688 C 652.851562 159.882812 655.328125 159.875 657.410156 160.289062 C 659.492188 160.703125 659.492188 161.3125 660.324219 162.160156 C 661.152344 163 661.660156 164.859375 661.730469 165.488281 C 661.761719 166.113281 662.195312 168.070312 662.804688 168.753906 C 663.429688 169.421875 662.820312 170.050781 664.472656 171.503906 C 666.121094 172.960938 665.707031 173.105469 668.007812 173.65625 C 670.292969 174.214844 670.292969 174.214844 670.292969 174.214844 C 670.292969 174.214844 670.707031 174.824219 670.292969 177.320312 C 669.855469 179.824219 670.464844 186.664062 670.464844 186.664062 Z M 646.195312 163.972656 C 645.070312 165.722656 643.820312 167.476562 644.742188 168.753906 C 645.992188 170.464844 644.953125 171.714844 647.238281 173.375 C 649.523438 175.035156 649.125 175.035156 650.132812 176.289062 C 651.175781 177.523438 649.320312 179.613281 651.386719 181.6875 C 653.46875 183.761719 653.257812 186.054688 656.140625 184.800781 C 659.054688 183.566406 657.429688 186.046875 659.164062 182.304688 C 659.390625 181.796875 659.664062 181.425781 659.890625 181.128906 C 670.921875 195.695312 680.882812 210.632812 689.796875 225.84375 C 687.746094 226.882812 686.816406 227.746094 687.265625 229.832031 C 688.007812 233.019531 692.359375 238.082031 695.414062 241.636719 C 678.488281 252.023438 657.988281 261.390625 634.695312 269.527344 C 620.261719 234.417969 603.402344 203.898438 586.238281 177.929688 C 582.894531 172.851562 579.492188 167.949219 576.089844 163.117188 C 595.03125 156.589844 611.46875 148.933594 625.003906 140.417969 C 632.441406 148.121094 639.519531 155.972656 646.195312 163.972656 Z M 346.902344 421.726562 C 346.886719 421.726562 346.851562 421.726562 346.828125 421.726562 C 325.125 420.285156 303.941406 418.136719 283.476562 415.359375 C 283.476562 415.242188 283.476562 415.148438 283.476562 414.765625 C 283.476562 413.828125 283.476562 410.398438 283.476562 407.3125 C 283.476562 404.1875 284.09375 402.308594 283.476562 399.203125 C 282.855469 396.097656 284.71875 396.410156 285.34375 394.84375 C 285.953125 393.285156 286.902344 393.921875 290.320312 391.425781 C 293.742188 388.925781 290.320312 386.742188 289.695312 385.820312 C 289.085938 384.882812 289.390625 383.949219 289.390625 382.402344 C 289.390625 380.828125 290.957031 381.148438 290.957031 380.21875 C 290.957031 379.277344 301.535156 373.675781 307.148438 371.804688 C 312.742188 369.941406 309.324219 370.570312 312.742188 370.253906 C 316.164062 369.941406 316.796875 371.5 323.710938 374.925781 C 330.601562 378.347656 327.0625 375.222656 329.550781 374.925781 C 332.050781 374.597656 333.917969 374.925781 336.09375 374.925781 C 338.269531 374.925781 339.203125 373.675781 339.515625 372.742188 C 339.828125 371.804688 337.644531 370.558594 337.644531 369.628906 C 337.644531 368.699219 341.699219 369.324219 343.550781 369.324219 C 345.40625 369.324219 347.917969 369.324219 351.339844 369.324219 C 354.757812 369.324219 356.324219 369.628906 357.882812 371.1875 C 359.429688 372.753906 360.683594 373.675781 364.414062 375.5625 C 368.148438 377.425781 366.894531 375.859375 369.078125 375.859375 C 371.261719 375.859375 371.261719 375.859375 373.445312 375.859375 C 375.621094 375.859375 374.683594 378.355469 375.003906 381.148438 C 375.316406 383.957031 376.246094 385.828125 376.246094 385.828125 C 376.246094 385.828125 376.246094 385.828125 376.246094 389.554688 C 376.246094 393.292969 377.171875 392.363281 378.125 392.980469 C 379.050781 393.589844 383.722656 402.648438 387.460938 402.019531 C 391.195312 401.394531 389.324219 400.769531 390.578125 398.890625 C 391.8125 397.027344 392.125 391.730469 392.125 391.730469 C 392.125 391.730469 389.949219 388.925781 389.324219 387.683594 C 388.707031 386.445312 387.460938 382.394531 387.15625 380.515625 C 386.84375 378.636719 386.53125 375.839844 385.90625 374.917969 C 385.277344 373.980469 385.90625 369.621094 385.609375 366.203125 C 385.277344 362.773438 386.84375 362.460938 387.167969 361.214844 C 387.472656 359.980469 389.960938 358.109375 390.585938 357.160156 C 391.203125 356.222656 394.003906 354.367188 395.25 352.488281 C 396.0625 351.296875 397.433594 350.550781 398.921875 349.808594 C 398.558594 373.03125 398.289062 396.605469 398.167969 420.277344 C 395.359375 419.023438 391.210938 416.875 391.210938 416.875 C 391.210938 416.875 388.089844 414.148438 385.617188 413.53125 C 383.121094 412.90625 379.699219 413.53125 376.578125 413.53125 C 373.472656 413.53125 366.617188 414.640625 365.683594 416.875 C 364.761719 419.125 363.5 421.9375 363.5 421.9375 C 363.5 421.9375 364.753906 421.9375 366.617188 421.9375 C 368.476562 421.9375 368.476562 420.996094 370.347656 420.378906 C 372.226562 419.753906 371.914062 416.671875 374.402344 417.585938 C 376.890625 418.5 380.320312 416.359375 382.496094 417.585938 C 384.660156 418.8125 388.089844 421.9375 388.089844 421.9375 C 388.089844 421.9375 388.714844 420.378906 389.664062 421.9375 C 389.992188 422.496094 390.933594 423.078125 392.050781 423.636719 C 376.765625 423.359375 361.730469 422.699219 346.902344 421.726562 Z M 316.984375 115.558594 C 322.085938 114.941406 321.460938 113.070312 326.429688 111.511719 C 331.421875 109.957031 331.726562 107.773438 333.910156 109.015625 C 336.09375 110.25 333.285156 112.75 336.398438 113.382812 C 339.515625 114 340.140625 116.710938 343.558594 115.820312 C 346.996094 114.941406 344.179688 117.117188 346.996094 114.941406 C 349.789062 112.757812 350.71875 115.863281 349.789062 112.757812 C 348.859375 109.652344 345.414062 107.773438 344.804688 104.976562 C 344.179688 102.175781 342.949219 104.886719 343.558594 101.042969 C 344.179688 97.199219 343.875 96.574219 344.492188 94.695312 C 345.117188 92.824219 345.117188 92.214844 345.117188 90.335938 C 345.117188 88.464844 346.039062 89.101562 341.070312 88.464844 C 340.734375 88.429688 340.421875 88.449219 340.097656 88.449219 C 342.300781 85.933594 344.449219 83.546875 346.589844 81.160156 C 351.203125 79.875 347.183594 80.949219 351.652344 79.753906 C 352.8125 79.449219 353.453125 79.359375 353.851562 79.339844 C 354.03125 79.375 354.214844 79.425781 354.410156 79.449219 C 354.496094 79.511719 354.554688 79.527344 354.664062 79.492188 C 357.476562 79.992188 360.394531 80.382812 363.289062 80.804688 C 363.136719 81.457031 363.964844 81.210938 364.921875 82.160156 C 365.980469 83.175781 363.484375 82.863281 365.980469 83.175781 C 368.460938 83.488281 365.667969 83.175781 368.460938 83.488281 C 371.269531 83.800781 370.644531 85.046875 372.515625 83.488281 C 372.726562 83.3125 372.863281 83.210938 373.03125 83.066406 C 369.308594 91.386719 365.347656 100.484375 361.285156 109.972656 C 359.871094 111.5625 360.117188 111.328125 360.5625 111.683594 C 358.167969 117.25 355.773438 123.03125 353.3125 128.964844 C 352.21875 129.03125 352.894531 127.695312 352.894531 127.695312 C 352.894531 127.695312 352.894531 124.589844 351.035156 123.640625 C 349.171875 122.71875 351.035156 123.640625 348.230469 124.269531 C 345.421875 124.894531 346.378906 124.582031 344.8125 123.953125 C 343.253906 123.328125 340.765625 122.71875 337.949219 121.160156 C 335.15625 119.59375 336.09375 120.535156 334.234375 119.59375 C 332.371094 118.65625 332.050781 118.03125 330.492188 115.855469 C 328.941406 113.6875 326.769531 118.039062 325.820312 118.664062 C 324.898438 119.289062 318.042969 121.160156 318.042969 121.160156 C 318.042969 121.160156 318.042969 121.160156 318.042969 119.910156 C 318.042969 118.671875 315.867188 118.671875 315.867188 118.671875 C 315.867188 118.671875 315.199219 118.824219 314.199219 118.960938 C 315.121094 117.835938 316.0625 116.683594 316.984375 115.558594 Z M 388.410156 64.191406 C 388.082031 67 389.960938 67.921875 390.890625 68.085938 C 391.820312 68.246094 391.820312 71.351562 391.820312 71.351562 C 391.820312 71.351562 385.277344 75.082031 384.644531 74.160156 C 384.425781 73.796875 383.78125 73.367188 383.070312 72.933594 C 384.753906 69.226562 386.394531 65.664062 387.980469 62.261719 C 388.25 62.929688 388.46875 63.554688 388.410156 64.191406 Z M 416.730469 56.402344 C 417.671875 55.777344 419.835938 50.175781 420.167969 48.617188 C 420.464844 47.058594 420.167969 44.578125 420.167969 42.710938 C 420.167969 40.839844 417.339844 40.210938 415.15625 39.59375 C 414.777344 39.492188 414.445312 39.527344 414.117188 39.542969 C 414.5625 30.378906 414.929688 23.292969 415.15625 18.714844 C 418.660156 22.878906 424.296875 29.960938 431.253906 39.941406 C 430.441406 40.449219 429.554688 41.101562 429.070312 41.566406 C 428.445312 42.191406 424.722656 43.226562 424.492188 44.054688 C 424.296875 44.882812 423.664062 46.753906 423.664062 46.753906 C 423.664062 46.753906 425.3125 48.40625 423.664062 49.453125 C 422.011719 50.480469 421.394531 55.058594 422.207031 55.886719 C 423.035156 56.71875 423.679688 57.125 423.25 58.171875 C 422.832031 59.214844 420.355469 61.480469 419.726562 61.90625 C 419.101562 62.320312 416.816406 64.191406 416.605469 65.859375 C 416.410156 67.507812 417.449219 70.003906 418.078125 71.460938 C 418.6875 72.898438 420.125 71.039062 419.929688 74.566406 C 419.828125 76.285156 420.066406 77.917969 420.742188 78.992188 C 417.917969 79.0625 415.089844 79.144531 412.246094 79.144531 C 412.574219 71.859375 412.871094 65.128906 413.167969 58.902344 C 414.066406 58.003906 415.96875 56.902344 416.730469 56.402344 Z M 410.976562 207.722656 C 411.492188 210.042969 409.476562 211.199219 407.160156 212.207031 C 407.351562 206.140625 407.554688 200.136719 407.75 194.246094 C 409.714844 195.3125 409.367188 195.890625 410.96875 200.25 C 412.675781 204.921875 410.179688 204.292969 410.976562 207.722656 Z M 380.929688 77.597656 C 381.097656 77.683594 381.207031 77.714844 381.351562 77.785156 C 381.183594 77.773438 381.046875 77.75 380.886719 77.722656 C 380.894531 77.691406 380.910156 77.640625 380.929688 77.597656 Z M 407.023438 84.054688 C 406.90625 86.882812 406.804688 89.761719 406.652344 92.722656 C 406.234375 92.453125 405.863281 92.171875 405.421875 91.894531 C 403.460938 90.648438 398.660156 90.328125 394.9375 90.328125 C 391.203125 90.328125 386.21875 94.058594 383.730469 95.617188 C 381.234375 97.191406 383.730469 95.617188 380.3125 103.402344 C 376.882812 111.191406 381.234375 105.902344 381.859375 109.007812 C 382.484375 112.121094 381.859375 109.007812 382.484375 110.566406 C 383.113281 112.128906 385.609375 113.0625 387.167969 116.167969 C 388.714844 119.289062 387.472656 118.351562 387.167969 121.160156 C 386.851562 123.953125 385.914062 124.582031 384.042969 127.375 C 382.171875 130.183594 382.808594 129.558594 380.320312 130.496094 C 377.8125 131.417969 378.753906 130.183594 378.753906 130.183594 C 378.753906 130.183594 379.378906 123.320312 379.066406 122.398438 C 378.753906 121.476562 379.066406 119.289062 377.8125 119.898438 C 376.578125 120.527344 375.019531 121.769531 374.097656 120.214844 C 373.160156 118.65625 373.472656 118.03125 373.472656 118.03125 C 373.472656 118.03125 370.355469 116.160156 369.730469 115.238281 C 369.113281 114.296875 370.355469 112.433594 370.355469 112.433594 C 370.355469 112.433594 372.234375 109.632812 372.234375 108.695312 C 372.234375 107.761719 372.234375 105.585938 372.234375 105.585938 L 371.609375 101.535156 L 371.609375 98.640625 C 371.839844 98.105469 372.074219 97.546875 372.304688 97.023438 L 374.410156 95.617188 L 379.082031 93.753906 L 380.023438 89.699219 L 381.875 86.90625 C 381.875 86.90625 389.671875 87.210938 390.90625 87.210938 C 392.144531 87.210938 399.3125 87.527344 400.574219 87.527344 C 401.734375 87.527344 402.324219 84.394531 402.394531 83.945312 C 403.925781 83.996094 405.472656 84.03125 407.023438 84.054688 Z M 410.976562 115.253906 C 412.363281 115.863281 412.988281 118.046875 414.234375 121.484375 C 415.488281 124.902344 414.859375 124.277344 415.792969 124.277344 C 416.730469 124.277344 418.601562 126.460938 418.601562 126.460938 C 418.601562 126.460938 423.265625 130.515625 423.265625 132.992188 C 423.265625 135.472656 422.34375 135.484375 420.785156 136.726562 C 419.210938 137.972656 418.601562 139.839844 418.289062 141.710938 C 417.976562 143.582031 419.542969 146.6875 417.679688 147 C 415.792969 147.304688 415.792969 147.304688 410.984375 147.304688 C 410.359375 147.304688 409.839844 147.339844 409.433594 147.40625 C 409.839844 136.09375 410.289062 125.300781 410.703125 115.101562 C 410.765625 115.136719 410.90625 115.21875 410.976562 115.253906 Z M 343.621094 179.082031 C 343.601562 178.785156 343.558594 178.582031 343.558594 178.140625 C 343.558594 175.035156 345.125 173.164062 346.046875 169.746094 C 346.996094 166.324219 347.925781 167.5625 354.46875 162.566406 C 360.996094 157.597656 358.195312 161.019531 360.691406 160.398438 C 363.179688 159.773438 362.5625 160.085938 364.109375 156.667969 C 365.667969 153.238281 368.164062 154.789062 371.898438 152.925781 C 375.621094 151.066406 371.898438 152.925781 375.621094 151.066406 C 379.363281 149.195312 375.621094 151.066406 375.316406 147.636719 C 375.003906 144.21875 372.820312 145.148438 376.875 145.148438 C 380.929688 145.148438 379.996094 143.589844 379.996094 143.589844 C 379.996094 143.589844 379.996094 143.589844 381.234375 141.40625 C 382.476562 139.222656 383.417969 142.023438 384.347656 142.023438 C 385.269531 142.023438 387.15625 142.023438 389.949219 140.46875 C 392.746094 138.902344 394.632812 137.980469 396.171875 136.734375 C 397.738281 135.492188 398.050781 135.167969 398.660156 132.0625 C 399.285156 128.957031 397.425781 129.261719 397.113281 127.085938 C 396.789062 124.902344 398.042969 124.589844 397.730469 122.71875 C 397.417969 120.847656 397.417969 119.910156 397.417969 119.910156 C 397.417969 119.910156 397.417969 118.351562 398.347656 116.175781 C 399.277344 114 399.914062 115.863281 401.773438 114.941406 C 403.628906 114.007812 404.578125 114.628906 405.414062 113.382812 C 405.484375 113.265625 405.667969 113.316406 405.777344 113.265625 C 404.914062 134.078125 404.027344 157.4375 403.144531 182.710938 C 382.570312 182.441406 362.644531 181.203125 343.621094 179.082031 Z M 383.390625 83.046875 C 383.359375 85.28125 382.730469 85.046875 380.929688 85.046875 C 379.4375 85.046875 378.414062 85.554688 377.027344 86.332031 C 377.566406 85.0625 378.136719 83.851562 378.6875 82.601562 C 380.269531 82.753906 381.800781 82.929688 383.390625 83.046875 Z M 363.050781 118.519531 C 363.542969 118.96875 364 119.402344 364.117188 120.230469 C 364.433594 122.414062 364.117188 120.230469 363.1875 121.789062 C 362.257812 123.335938 361.925781 123.964844 360.148438 125.476562 C 361.105469 123.132812 362.078125 120.796875 363.050781 118.519531 Z M 402.992188 187.6875 C 402.699219 196.480469 402.402344 205.480469 402.105469 214.679688 C 400.683594 215.6875 400.386719 216.746094 399.921875 219.546875 C 399.296875 223.269531 401.480469 221.722656 401.175781 227.324219 C 400.84375 232.929688 400.84375 230.136719 398.355469 233.242188 C 395.867188 236.347656 394.632812 234.796875 392.746094 234.476562 C 390.882812 234.171875 389.027344 228.246094 388.402344 224.203125 C 387.777344 220.15625 389.019531 220.15625 388.699219 216.109375 C 388.402344 212.0625 387.148438 212.386719 384.027344 210.195312 C 380.921875 208.011719 379.988281 208.957031 376.867188 208.011719 C 373.75 207.085938 373.445312 207.390625 369.402344 205.53125 C 365.347656 203.660156 368.78125 203.035156 366.589844 200.542969 C 364.414062 198.054688 362.222656 197.429688 359.421875 195.871094 C 356.628906 194.316406 354.453125 193.070312 352.574219 192.453125 C 350.703125 191.828125 350.398438 189.957031 350.078125 186.851562 C 349.976562 185.859375 349.65625 185.199219 349.238281 184.632812 C 366.546875 186.402344 384.515625 187.441406 402.992188 187.6875 Z M 351.964844 256.914062 C 353.21875 256.914062 356.941406 254.113281 361.945312 250.871094 C 361.945312 250.871094 361.945312 250.871094 363.804688 251.929688 C 365.675781 252.980469 363.804688 251.929688 363.492188 252.859375 C 363.1875 253.792969 365.050781 253.792969 366.609375 256.289062 C 368.171875 258.777344 376.265625 264.066406 375.628906 265.632812 C 375.011719 267.191406 375.628906 265.632812 365.042969 267.191406 C 354.46875 268.746094 365.042969 267.191406 361.945312 266.875 C 358.8125 266.570312 358.8125 264.386719 356.941406 263.769531 C 355.078125 263.144531 355.382812 261.585938 351.652344 261.273438 C 347.925781 260.96875 351.652344 261.273438 348.230469 261.585938 C 344.8125 261.898438 346.675781 262.214844 343.875 261.585938 C 341.082031 260.96875 341.082031 260.03125 341.082031 260.03125 C 341.082031 260.03125 350.730469 256.914062 351.964844 256.914062 Z M 458.171875 181.011719 C 457.144531 179.292969 456.222656 177.785156 455.011719 176.582031 C 453.160156 174.710938 455.011719 176.582031 452.847656 179.707031 C 450.664062 182.8125 452.847656 179.707031 453.328125 180.941406 C 453.378906 181.042969 453.328125 181.195312 453.277344 181.324219 C 448.894531 181.636719 444.449219 181.847656 439.988281 182.058594 C 438.703125 181.355469 437.359375 180.402344 436.039062 179.070312 C 433.539062 176.574219 435.722656 175.949219 435.097656 172.84375 C 434.488281 169.734375 434.785156 171.285156 432.601562 170.355469 C 430.433594 169.421875 429.808594 169.421875 428.886719 167.867188 C 427.945312 166.308594 425.449219 165.683594 423.59375 165.0625 C 421.707031 164.4375 419.542969 164.4375 414.867188 163.820312 C 410.1875 163.195312 412.371094 164.75 410.984375 166.621094 C 410.207031 167.652344 409.300781 169.261719 408.539062 171.726562 C 408.714844 166.78125 408.875 161.925781 409.0625 157.160156 C 409.6875 157.109375 410.332031 156.957031 410.976562 156.660156 C 412.988281 155.71875 415.488281 152.917969 415.488281 152.917969 C 415.488281 152.917969 418.59375 154.484375 422.011719 157.597656 C 425.433594 160.703125 427.632812 162.566406 429.800781 165.378906 C 431.964844 168.179688 433.855469 169.429688 440.066406 166.621094 C 446.296875 163.820312 441.953125 166.316406 446.296875 165.378906 C 450.664062 164.445312 447.53125 162.566406 446.296875 161.019531 C 445.058594 159.460938 442.875 159.148438 439.769531 157.902344 C 436.648438 156.667969 436.960938 155.71875 439.769531 156.03125 C 442.5625 156.347656 445.984375 156.347656 450.035156 155.09375 C 454.089844 153.859375 451.59375 151.691406 451.59375 151.691406 C 451.59375 151.691406 446.617188 149.804688 441.640625 145.765625 C 436.648438 141.71875 438.515625 142.339844 437.90625 140.476562 C 437.28125 138.605469 441.960938 139.546875 443.199219 139.546875 C 444.433594 139.546875 445.992188 141.730469 449.113281 144.53125 C 452.21875 147.324219 450.96875 143.914062 450.96875 142.964844 C 450.96875 142.035156 449.730469 136.742188 448.488281 133.308594 C 447.253906 129.886719 442.882812 131.75 441.328125 130.828125 C 439.769531 129.886719 433.539062 124.285156 432.914062 123.335938 C 432.304688 122.414062 431.976562 110.886719 429.808594 109.335938 C 427.640625 107.769531 424.8125 107.152344 422.960938 105.605469 C 421.074219 104.046875 418.59375 102.480469 416.730469 100.933594 C 415.046875 99.519531 413.109375 97.4375 411.492188 96.117188 C 411.667969 92.003906 411.839844 88 412.015625 84.148438 C 422.925781 84.132812 433.523438 83.574219 443.773438 82.609375 C 446.066406 84.859375 448.386719 87.273438 450.035156 88.695312 C 452.726562 90.980469 455.867188 91.375 456.265625 97.402344 C 456.679688 103.421875 458.550781 102.804688 461.4375 102.804688 C 464.347656 102.804688 466.625 104.046875 467.261719 104.460938 C 467.871094 104.886719 465.820312 106.753906 465.195312 108.195312 C 464.570312 109.652344 462.285156 111.316406 464.347656 114.628906 C 466.429688 117.953125 462.714844 120.035156 467.371094 119.402344 C 470.722656 118.953125 472.710938 116.488281 473.964844 115.210938 C 474.480469 116.355469 475.023438 117.546875 475.554688 118.707031 C 475.4375 119.875 475.292969 121.109375 475.140625 122.3125 C 474.726562 125.832031 471.324219 131.65625 475.714844 135.398438 C 480.125 139.128906 480.957031 140.789062 484.476562 142.449219 C 485.136719 142.746094 485.636719 143.074219 486.144531 143.386719 C 490.359375 153.789062 494.472656 164.851562 498.441406 176.542969 C 485.484375 178.472656 472.027344 179.960938 458.171875 181.011719 Z M 426.183594 78.808594 C 429.324219 77.046875 432.652344 74.667969 435.097656 75.195312 C 437.578125 75.71875 436.902344 76.335938 438.703125 78.039062 C 434.566406 78.367188 430.398438 78.636719 426.183594 78.808594 Z M 495.699219 154.09375 C 498.027344 156.117188 498.339844 156.980469 501.734375 158.214844 C 505.671875 159.671875 504.214844 160.917969 506.492188 162.789062 C 508.777344 164.667969 510.445312 164.4375 513.964844 164.4375 C 517.503906 164.4375 518.957031 167.773438 520.828125 168.171875 C 522.683594 168.59375 523.324219 169.21875 524.765625 168.171875 C 526.21875 167.136719 526.21875 169.632812 526.21875 165.683594 C 526.21875 161.738281 527.066406 164.03125 526.21875 159.460938 C 525.390625 154.890625 522.285156 143.269531 519.375 138.089844 C 516.460938 132.902344 517.917969 133.113281 520.414062 130.828125 C 522.894531 128.542969 525.585938 129.167969 525.585938 125.222656 C 525.585938 121.269531 523.300781 120.449219 525.585938 115.253906 C 526.507812 113.171875 527.472656 112.417969 528.242188 111.75 C 541.582031 126.382812 555.109375 142.582031 568.21875 160.664062 C 548.777344 166.890625 527.007812 172.011719 503.488281 175.738281 C 500.9375 168.253906 498.347656 161.042969 495.699219 154.09375 Z M 407.261719 79.0625 C 400.269531 78.992188 393.386719 78.714844 386.660156 78.214844 C 385.5 76.445312 391.914062 77.207031 393.371094 76.328125 C 394.9375 75.386719 400.21875 77.25 400.21875 77.25 C 400.21875 77.25 403.035156 77.875 405.421875 77.5625 C 406.515625 77.410156 406.828125 77.546875 406.929688 77.714844 C 407.046875 77.417969 407.210938 76.921875 407.386719 76.378906 C 407.34375 77.292969 407.300781 78.15625 407.261719 79.0625 Z M 382.78125 61.667969 C 380.683594 60.515625 379.5 59.5625 378.058594 59.542969 C 376.257812 59.519531 378.433594 60.136719 376.257812 59.519531 C 374.082031 58.902344 371.585938 59.542969 371.585938 59.542969 C 370.339844 61.085938 370.957031 59.214844 370.339844 61.085938 C 369.714844 62.953125 369.714844 66.304688 370.957031 66.195312 C 372.210938 66.0625 370.339844 65.128906 372.210938 66.0625 C 374.082031 67 372.507812 67 374.082031 67 C 375.628906 67 375.433594 66 376.628906 66.1875 C 377.804688 66.367188 375.324219 64.816406 377.804688 66.367188 C 378.898438 67.042969 379.523438 67.355469 380.039062 67.578125 C 378.675781 70.539062 377.238281 73.753906 375.808594 76.902344 C 375.765625 76.886719 375.6875 76.820312 375.6875 76.820312 C 375.6875 76.820312 375.554688 76.980469 375.410156 77.183594 C 374.757812 77.097656 374.105469 77.046875 373.464844 76.980469 C 373.464844 76.921875 373.445312 76.886719 373.464844 76.820312 C 373.769531 73.214844 373.769531 73.214844 373.769531 73.214844 L 372.523438 71.621094 C 372.523438 71.621094 371.644531 71.292969 369.910156 71.621094 C 368.171875 71.976562 365.695312 74.160156 365.847656 75.082031 C 365.964844 75.863281 366.9375 75.066406 366.335938 76.046875 C 364.296875 75.761719 362.214844 75.480469 360.191406 75.167969 C 360.269531 74.855469 360.335938 74.585938 360.386719 74.109375 C 360.699219 71.351562 360.386719 68.296875 360.386719 68.296875 C 360.386719 68.296875 360.835938 66.570312 362.011719 64.242188 C 378.320312 46.6875 391.8125 33.230469 400.414062 24.917969 C 396.179688 33.382812 390.042969 45.984375 382.78125 61.667969 Z M 429.179688 302.679688 C 431.070312 300.183594 433.550781 303.933594 440.074219 299.261719 C 446.617188 294.578125 442.570312 297.382812 443.199219 295.839844 C 443.824219 294.273438 443.199219 293.960938 443.199219 292.421875 C 443.199219 290.855469 444.433594 288.367188 444.433594 287.425781 C 444.433594 286.488281 446.304688 285.242188 448.167969 283.695312 C 450.027344 282.144531 450.664062 282.460938 453.472656 281.199219 C 456.265625 279.960938 457.511719 278.710938 458.433594 278.109375 C 459.390625 277.480469 460.320312 275.296875 466.238281 271.558594 C 472.136719 267.824219 466.53125 273.734375 465.90625 275.296875 C 465.296875 276.855469 460.007812 281.199219 460.929688 285.574219 C 461.871094 289.925781 462.488281 286.808594 465.90625 286.191406 C 469.324219 285.574219 474.632812 280.273438 475.5625 278.710938 C 476.503906 277.144531 484.289062 271.246094 483.976562 270.007812 C 483.664062 268.757812 483.664062 267.199219 483.664062 267.199219 C 483.664062 267.199219 480.871094 266.265625 477.136719 264.398438 C 473.386719 262.527344 477.136719 264.398438 471.535156 262.832031 C 465.914062 261.273438 471.535156 262.832031 469.039062 260.039062 C 466.542969 257.246094 469.039062 260.039062 465.617188 258.792969 C 462.199219 257.550781 465.617188 258.792969 465.617188 256.617188 C 465.617188 254.433594 468.742188 255.042969 471.222656 250.878906 C 473.71875 246.699219 472.777344 247.882812 471.222656 246.023438 C 469.664062 244.160156 469.335938 245.71875 465.914062 245.71875 C 462.496094 245.71875 462.199219 246.023438 456.910156 247.578125 C 451.601562 249.152344 456.910156 247.578125 454.726562 250.886719 C 452.542969 254.1875 453.167969 253.191406 451.601562 254.441406 C 450.046875 255.679688 448.496094 256.628906 442.578125 257.253906 C 436.664062 257.863281 442.578125 257.253906 443.503906 255.367188 C 444.441406 253.496094 443.503906 255.367188 446.625 250.886719 C 449.730469 246.394531 449.4375 248.214844 450.976562 246.03125 C 452.550781 243.847656 455.65625 243.238281 457.839844 241.671875 C 460.023438 240.105469 461.574219 240.738281 464.6875 240.105469 C 467.8125 239.496094 474.363281 240.105469 480.574219 239.800781 C 486.789062 239.496094 485.863281 238.871094 487.421875 237 C 488.980469 235.128906 490.839844 231.394531 491.476562 229.210938 C 492.109375 227.027344 493.660156 227.34375 494.285156 226.417969 C 494.894531 225.480469 498.324219 222.363281 498.019531 220.496094 C 497.6875 218.632812 497.390625 216.769531 495.835938 215.824219 C 494.277344 214.898438 492.730469 214.898438 489.605469 213.648438 C 486.5 212.410156 487.125 213.019531 487.125 209.289062 C 487.125 205.554688 487.125 209.289062 486.1875 208.976562 C 485.261719 208.660156 480.582031 206.488281 476.84375 204.921875 C 473.109375 203.363281 474.988281 204.617188 470.941406 203.683594 C 466.898438 202.753906 467.191406 196.210938 465.636719 194.652344 C 464.296875 193.324219 462.722656 189.109375 460.957031 185.75 C 474.378906 184.65625 487.507812 183.167969 500.117188 181.253906 C 502.429688 188.195312 504.714844 195.324219 506.898438 202.710938 C 510.75 215.621094 514.421875 229.578125 517.875 244.457031 C 516.714844 243.269531 516.539062 243.332031 515.445312 242.144531 C 514.058594 240.585938 517.941406 240.738281 513.433594 239.808594 C 508.921875 238.878906 507.363281 238.566406 506.128906 238.878906 C 504.875 239.191406 504.097656 239.039062 504.097656 239.039062 C 504.097656 239.039062 503.628906 238.878906 503.003906 238.25 C 502.378906 237.640625 501.597656 236.066406 501.597656 234.832031 C 501.597656 233.597656 501.597656 232.039062 501.597656 231.101562 C 501.597656 230.175781 502.226562 229.078125 501.445312 229.230469 C 500.667969 229.398438 499.890625 229.230469 499.890625 229.230469 C 497.390625 232.816406 494.597656 234.367188 494.734375 235.457031 C 494.902344 236.550781 494.421875 238.25 494.734375 239.039062 C 495.066406 239.816406 494.835938 240.75 494.617188 241.992188 C 494.4375 243.246094 493.804688 243.085938 493.363281 245.429688 C 492.882812 247.757812 491.941406 249.484375 491.941406 250.09375 C 491.941406 250.71875 491.316406 251.03125 491.941406 252.734375 C 492.566406 254.453125 487.742188 253.671875 492.566406 254.453125 C 497.390625 255.230469 495.84375 254.140625 500.820312 254.453125 C 505.796875 254.757812 504.410156 253.976562 508.757812 253.359375 C 513.125 252.734375 514.363281 251.640625 515.300781 251.792969 C 516.226562 251.953125 514.210938 253.453125 513.429688 254.730469 C 512.652344 256.007812 515.445312 256 517.484375 256 C 518.941406 256 519.667969 256.628906 520.558594 256.515625 C 523.171875 268.695312 525.585938 281.496094 527.753906 294.902344 C 496.554688 299.472656 463.367188 302.273438 429.011719 303 C 429.0625 302.855469 429.097656 302.796875 429.179688 302.679688 Z M 524.746094 252.351562 C 524.847656 251.980469 524.765625 251.582031 524.46875 251.074219 C 520.515625 233.140625 516.183594 216.523438 511.671875 201.289062 C 509.539062 194.105469 507.320312 187.207031 505.078125 180.425781 C 529.046875 176.558594 551.230469 171.226562 571.054688 164.734375 C 574.820312 170 578.5625 175.296875 582.226562 180.859375 C 599.105469 206.453125 615.753906 236.550781 629.988281 271.152344 C 601.175781 280.84375 568.277344 288.65625 532.652344 294.148438 C 530.265625 279.480469 527.625 265.554688 524.746094 252.351562 Z M 573.195312 159.089844 C 559.042969 139.453125 544.402344 121.8125 529.96875 106.171875 C 529.953125 105.789062 529.96875 105.503906 529.953125 105.078125 C 529.523438 96.980469 531.410156 99.890625 532.644531 97.605469 C 533.898438 95.3125 530.597656 91.996094 527.253906 89.929688 C 523.925781 87.847656 516.65625 82.863281 514.386719 79.753906 C 513.085938 77.988281 509.410156 73.527344 505.90625 69.699219 C 512.796875 67.238281 519.085938 64.476562 524.707031 61.480469 C 549.648438 76.191406 576.699219 95.042969 603.242188 119.164062 C 609.640625 124.988281 615.710938 130.929688 621.625 136.945312 C 608.3125 145.265625 592.027344 152.742188 573.195312 159.089844 Z M 502.015625 65.738281 C 500.886719 64.699219 499.898438 63.867188 499.238281 63.554688 C 496.132812 62.117188 498.214844 65.847656 493.007812 59.824219 C 487.835938 53.824219 485.339844 54.433594 483.039062 53.601562 C 480.769531 52.78125 478.90625 51.738281 476.191406 49.464844 C 473.5 47.167969 475.378906 48.429688 472.457031 46.761719 C 469.546875 45.105469 468.953125 44.082031 463.75 40.542969 C 460.675781 38.453125 458.007812 38.492188 456.273438 38.847656 C 444.40625 29.800781 434.371094 22.910156 427.082031 18.1875 C 428.4375 18.511719 430.085938 18.898438 431.609375 19.273438 C 448.539062 24.578125 481.160156 36.445312 519.636719 58.535156 C 514.328125 61.125 508.464844 63.554688 502.015625 65.738281 Z M 449.679688 40.121094 C 449.234375 40.035156 448.191406 39.507812 445.898438 38.035156 C 440.074219 34.304688 436.570312 32.847656 435.105469 33.476562 C 434.515625 33.71875 433.914062 34.050781 433.371094 34.339844 C 430.128906 29.792969 427.160156 25.773438 424.644531 22.546875 C 431.058594 26.710938 439.558594 32.535156 449.679688 40.121094 Z M 409.039062 41.226562 C 406.53125 41.667969 402.679688 44.597656 400.84375 45.511719 C 399.363281 46.253906 397.203125 47.855469 393.277344 50.953125 C 401.816406 32.984375 407.960938 20.929688 410.289062 16.410156 C 410.054688 21.042969 409.621094 29.488281 409.039062 41.226562 Z M 347.417969 72.816406 C 345.726562 72.46875 344.101562 72.070312 342.460938 71.691406 C 342.636719 71.539062 342.714844 71.519531 342.960938 71.34375 C 346.378906 68.550781 345.125 70.53125 347.925781 68.296875 C 350.730469 66.0625 346.378906 67.921875 350.730469 66.050781 C 355.089844 64.183594 355.089844 64.183594 355.089844 64.183594 L 355.089844 60.761719 L 350.152344 61.074219 C 349.796875 61.683594 351.972656 57.34375 346.683594 61.074219 C 341.386719 64.808594 339.210938 64.183594 338.582031 65.121094 C 337.957031 66.0625 335.789062 68.296875 335.789062 68.296875 C 335.789062 68.296875 332.371094 66.171875 332.683594 68.296875 C 332.734375 68.71875 332.75 68.980469 332.769531 69.261719 C 328.394531 68.058594 324.253906 66.753906 320.265625 65.375 C 352.996094 44.460938 380.363281 29.996094 395.996094 22.242188 C 385.390625 32.535156 368.148438 49.871094 347.417969 72.816406 Z M 342.527344 77.132812 C 342.070312 77.597656 341.832031 78.054688 341.082031 79.128906 C 339.515625 81.3125 335.46875 80.6875 339.515625 81.3125 C 339.617188 81.332031 339.683594 81.347656 339.777344 81.363281 C 337.484375 83.945312 335.230469 86.460938 332.886719 89.160156 C 332.558594 88.886719 332.363281 88.421875 332.363281 87.542969 C 332.363281 83.496094 330.484375 86.925781 332.363281 83.496094 C 334.234375 80.070312 335.78125 77.265625 334.539062 76.953125 C 333.292969 76.640625 329.550781 76.953125 329.550781 76.953125 C 326.757812 77.582031 321.15625 77.582031 317.738281 80.382812 C 314.300781 83.183594 313.683594 82.871094 311.5 85.671875 C 309.324219 88.472656 308.078125 88.472656 307.453125 89.40625 C 306.828125 90.335938 303.101562 92.121094 304.957031 92.789062 C 306.828125 93.449219 307.453125 91.808594 309.636719 92.789062 C 311.820312 93.761719 313.691406 95.9375 313.691406 95.9375 C 313.691406 95.9375 313.691406 97.191406 314.003906 98.4375 C 314.300781 99.671875 310.253906 102.792969 310.578125 103.726562 C 310.882812 104.65625 309.644531 107.144531 310.578125 109.015625 C 311.464844 110.820312 310.160156 110.386719 312.835938 112.832031 C 311.050781 115 309.28125 117.140625 307.460938 119.359375 C 306.734375 119.382812 306.453125 119.351562 305.902344 118.984375 C 304.964844 118.359375 304.964844 116.175781 304.964844 116.175781 C 304.964844 116.175781 307.773438 114.304688 307.773438 113.382812 C 307.773438 112.453125 307.460938 111.199219 307.460938 111.199219 L 305.277344 108.398438 C 305.277344 108.398438 301.859375 104.976562 301.375 104.039062 C 300.875 103.097656 298.429688 102.464844 298.429688 102.464844 C 298.429688 102.464844 297.804688 98.742188 297.804688 95.617188 C 297.804688 92.511719 294.6875 93.128906 294.6875 93.128906 C 294.6875 93.128906 292.210938 93.128906 290.027344 93.128906 C 287.832031 93.128906 286.597656 94.058594 285.039062 94.375 C 283.578125 94.667969 281.746094 94.40625 277.703125 94.382812 C 290.449219 85.113281 302.875 76.617188 314.648438 68.957031 C 323.085938 72.121094 332.371094 74.90625 342.527344 77.132812 Z M 273.75 97.300781 C 273.824219 97.234375 273.894531 97.183594 273.96875 97.132812 C 273.886719 97.183594 273.859375 97.234375 273.75 97.300781 Z M 405.421875 534.652344 C 404.535156 534.980469 404.179688 535.574219 403.6875 536.125 C 403.550781 527.777344 403.441406 519.390625 403.339844 510.976562 C 403.519531 511.519531 403.636719 511.917969 403.636719 511.917969 L 406.761719 513.457031 C 406.769531 513.457031 407.082031 534.015625 405.421875 534.652344 Z M 411.390625 423.859375 C 410.816406 423.859375 410.265625 423.859375 409.6875 423.839844 C 409.546875 423.722656 409.425781 423.613281 409.257812 423.492188 C 407.394531 421.9375 408.664062 420.386719 404.289062 420.683594 C 403.753906 420.734375 403.511719 420.769531 403.113281 420.820312 C 403.257812 395.945312 403.527344 371.128906 403.925781 346.734375 C 405.085938 345.878906 406.195312 345.042969 407.691406 344.09375 C 410.179688 342.535156 407.691406 344.09375 410.976562 340.371094 C 414.234375 336.628906 410.804688 337.246094 410.976562 334.757812 C 411.109375 332.277344 412.675781 321.367188 414.546875 322.308594 C 416.417969 323.230469 414.546875 322.308594 418.601562 322.613281 C 422.65625 322.917969 418.601562 322.613281 420.175781 319.183594 C 421.714844 315.757812 423.59375 315.453125 424.214844 313.894531 C 424.824219 312.355469 425.449219 310.796875 426.378906 308.027344 C 462.125 307.417969 496.417969 304.644531 528.539062 300.03125 C 533.914062 334.554688 537.613281 373.066406 538.605469 415.5625 C 498.457031 420.964844 455.648438 423.859375 411.390625 423.859375 Z M 533.457031 299.3125 C 569.640625 293.84375 602.871094 285.988281 631.984375 276.203125 C 645.257812 309.398438 656.253906 346.65625 663.203125 388.046875 C 627.804688 399.609375 587.371094 408.734375 543.5625 414.886719 C 542.546875 372.398438 538.847656 333.878906 533.457031 299.3125 Z M 524.910156 55.804688 C 506.296875 44.976562 489.074219 36.5625 474.039062 30.011719 C 492.839844 35.109375 514.195312 41.320312 535.800781 48.480469 C 532.628906 51.027344 529.03125 53.5 524.910156 55.804688 Z M 398.71875 15.363281 C 383.753906 22.597656 352.40625 38.695312 314.316406 63.269531 C 304.796875 59.570312 296.652344 55.335938 290.179688 50.75 C 336.660156 30.722656 375.121094 19.90625 392.632812 15.515625 C 394.664062 15.464844 396.679688 15.40625 398.71875 15.363281 Z M 308.96875 66.796875 C 296.660156 74.847656 283.796875 83.691406 270.535156 93.457031 C 270.515625 92.933594 270.585938 92.433594 270.398438 91.894531 C 269.769531 90.015625 269.160156 87.839844 268.214844 86.289062 C 267.28125 84.722656 266.976562 82.558594 266.34375 80.375 C 265.71875 78.199219 266.03125 78.199219 264.777344 76.015625 C 263.542969 73.832031 261.359375 71.648438 260.722656 69.785156 C 260.105469 67.914062 259.488281 67.914062 257.625 68.226562 C 255.761719 68.542969 255.753906 67.914062 254.1875 68.542969 C 253.394531 68.855469 252.980469 68.609375 252.183594 68.40625 C 263.3125 62.792969 274.214844 57.722656 284.746094 53.09375 C 291.160156 58.171875 299.320312 62.769531 308.96875 66.796875 Z M 224.320312 83.496094 C 223.390625 84.734375 222.753906 84.734375 221.511719 85.367188 C 221.207031 85.519531 220.976562 85.46875 220.789062 85.28125 C 222.019531 84.589844 223.21875 83.945312 224.445312 83.25 C 224.394531 83.335938 224.386719 83.394531 224.320312 83.496094 Z M 194.746094 123.964844 C 195.667969 123.964844 193.503906 125.519531 191.9375 126.230469 C 190.886719 126.730469 190.550781 128.382812 190.347656 129.785156 C 189.210938 128.921875 188.101562 128.085938 187.042969 127.222656 C 189.167969 126.214844 194.011719 123.964844 194.746094 123.964844 Z M 196.296875 131.4375 C 197.234375 131.4375 200.027344 129.878906 200.027344 129.878906 C 200.027344 129.878906 203.761719 128.320312 204.082031 126.460938 C 204.40625 124.597656 205.328125 135.167969 205.328125 135.167969 C 205.328125 135.167969 205.867188 137.910156 206.148438 140.230469 C 201.441406 137.539062 197.066406 134.746094 193.070312 131.867188 C 194.441406 131.691406 195.863281 131.4375 196.296875 131.4375 Z M 209.710938 149.90625 C 210.328125 151.765625 211.234375 154.5 210.9375 155.726562 C 210.609375 156.972656 210.3125 158.53125 209.355469 159.78125 C 208.441406 161.027344 208.441406 168.5 207.179688 169.753906 C 205.945312 170.988281 207.179688 172.859375 206.257812 176.601562 C 205.328125 180.332031 207.179688 181.28125 207.179688 181.28125 L 206.257812 185.945312 C 206.257812 185.945312 204.699219 191.242188 203.761719 193.113281 C 202.839844 194.984375 202.203125 197.160156 202.203125 197.160156 C 202.203125 197.160156 203.136719 203.390625 200.96875 205.257812 C 198.785156 207.128906 200.96875 205.257812 200.027344 206.191406 C 199.097656 207.121094 198.792969 209.914062 198.167969 212.105469 C 197.546875 214.28125 200.96875 218.953125 201.28125 220.503906 C 201.585938 222.070312 201.585938 223.617188 201.28125 224.871094 C 200.96875 226.113281 202.515625 229.542969 201.585938 231.726562 C 200.65625 233.910156 197.84375 244.804688 196.289062 247.910156 C 194.738281 251.03125 191.3125 255.695312 189.128906 258.8125 C 187.078125 261.746094 186.597656 263.414062 183.683594 268.535156 C 162.230469 260.832031 143.355469 252.039062 127.558594 242.332031 C 148.863281 212.242188 172.460938 185.757812 195.71875 163.101562 C 200.367188 158.582031 205.039062 154.195312 209.710938 149.90625 Z M 185.765625 318.820312 C 186.953125 319.648438 187.28125 320.214844 189.449219 322.613281 C 192.242188 325.726562 192.242188 342.839844 192.867188 345.964844 C 193.496094 349.070312 197.546875 350.941406 197.546875 350.941406 C 197.546875 350.941406 197.84375 353.125 197.546875 354.683594 C 197.234375 356.230469 197.546875 359.03125 196.339844 360.277344 C 195.121094 361.527344 196.601562 362.164062 196.601562 362.164062 C 196.601562 362.164062 195.972656 363.714844 196.601562 364.957031 C 197.226562 366.203125 196.601562 367.75 196.601562 367.75 C 196.601562 367.75 199.707031 369.941406 201.585938 370.875 C 203.464844 371.796875 205.003906 372.742188 204.699219 373.667969 C 204.386719 374.589844 205.320312 381.765625 205.625 384.253906 C 205.9375 386.742188 206.875 386.742188 206.875 387.988281 C 206.875 389.230469 210.296875 394.207031 210.296875 395.15625 C 210.296875 396.085938 213.089844 397.636719 213.089844 397.636719 L 214.644531 397.636719 C 214.644531 397.636719 215.273438 393.582031 215.273438 392.660156 C 215.273438 391.730469 215.273438 389.867188 215.273438 389.867188 C 215.273438 389.867188 214.644531 388.292969 213.089844 387.066406 C 211.53125 385.820312 210.921875 382.0625 210.921875 382.0625 C 210.921875 382.0625 210.921875 377.722656 210.296875 376.789062 C 209.667969 375.851562 208.113281 369.003906 208.113281 369.003906 L 207.171875 363.703125 C 207.171875 363.703125 205.613281 358.40625 205.308594 357.484375 C 204.996094 356.542969 204.996094 355.300781 204.378906 354.0625 C 203.753906 352.8125 204.066406 349.382812 204.066406 349.382812 L 201.578125 340.96875 C 201.578125 340.96875 205.9375 339.742188 208.46875 340.96875 C 210.988281 342.222656 211.21875 348.460938 208.738281 352.195312 C 206.242188 355.925781 221.484375 372.117188 221.484375 372.117188 C 221.484375 372.117188 221.816406 375.554688 221.492188 377.730469 C 221.1875 379.90625 224.609375 380.523438 224.609375 382.699219 C 224.609375 384.882812 235.1875 402.019531 236.761719 406.675781 C 236.863281 407.015625 236.847656 407.363281 236.929688 407.675781 C 209.027344 402.214844 182.890625 395.496094 159.0625 387.675781 C 166.476562 364.203125 175.535156 341.199219 185.765625 318.820312 Z M 237.277344 412.710938 C 237.101562 415.65625 236.585938 418.882812 236.769531 422.859375 C 237.066406 429.722656 243.929688 433.769531 243.929688 433.769531 L 251.40625 439.058594 L 257.632812 441.226562 C 257.632812 441.226562 259.320312 442.164062 261.917969 443.519531 C 256.890625 478.847656 254.011719 514.921875 254.308594 550.476562 C 211.546875 543.335938 172.242188 533.355469 138.074219 521.101562 C 137.972656 515.480469 137.980469 509.808594 138.175781 504.105469 C 139.332031 466.328125 146.492188 428.808594 157.667969 392.261719 C 182.042969 400.300781 208.789062 407.160156 237.277344 412.710938 Z M 266.589844 445.941406 C 274.34375 449.84375 285.140625 454.929688 290.949219 455.859375 C 300.597656 457.433594 304.644531 453.691406 309 455.859375 C 313.371094 458.042969 320.519531 465.832031 324.574219 470.1875 C 328.628906 474.546875 328.308594 471.746094 330.804688 473.296875 C 333.285156 474.835938 334.222656 473.609375 339.828125 475.183594 C 345.414062 476.722656 351.023438 487.617188 351.023438 490.113281 C 351.023438 492.59375 352.886719 494.792969 355.078125 498.507812 C 357.261719 502.257812 358.804688 498.507812 362.238281 498.507812 C 365.675781 498.507812 367.851562 506.941406 369.417969 506.609375 C 370.964844 506.3125 375.953125 506.3125 375.953125 506.3125 C 375.953125 506.3125 381.234375 509.417969 383.730469 511.917969 L 387.785156 508.183594 L 392.136719 504.746094 L 395.875 503.191406 C 395.875 503.191406 397.035156 503.671875 398.3125 504.230469 C 398.421875 515.820312 398.585938 527.339844 398.789062 538.765625 C 396.738281 540.269531 394.472656 542.351562 393.082031 543.359375 C 390.890625 544.933594 389.332031 553.019531 386.851562 558.308594 C 386.175781 559.730469 385.726562 561.269531 385.398438 562.785156 C 341.410156 561.640625 298.914062 557.722656 259.292969 551.324219 C 258.945312 516.316406 261.707031 480.785156 266.589844 445.941406 Z M 384.746094 567.761719 C 384.644531 569.546875 384.644531 571.019531 384.644531 571.367188 C 384.644531 572.308594 387.15625 574.804688 387.15625 577.316406 C 387.15625 579.765625 387.15625 577.316406 385.90625 577.613281 C 384.652344 577.910156 382.800781 582.589844 381.554688 584.140625 C 380.3125 585.695312 381.554688 591.300781 381.554688 593.164062 C 381.554688 595.023438 384.035156 597.53125 386.84375 598.46875 C 388.875 599.144531 396.128906 602.996094 400.582031 606.011719 C 401.46875 630.066406 402.597656 653.238281 404.058594 675.179688 C 358.863281 674.832031 314.960938 671.460938 273.867188 665.394531 C 264.449219 630.878906 260.039062 594.144531 259.320312 556.699219 C 298.601562 562.851562 340.800781 566.652344 384.746094 567.761719 Z M 405.726562 611.402344 C 407.53125 614.261719 409.65625 617.960938 410.796875 619.339844 C 412.320312 621.195312 412.066406 624.925781 410.976562 626.816406 C 409.867188 628.667969 413.9375 629.292969 414.859375 631.792969 C 415.78125 634.273438 417.339844 633.957031 417.964844 635.523438 C 418.59375 637.082031 421.074219 639.257812 422.648438 641.753906 C 424.203125 644.234375 431.976562 647.339844 436.039062 647.671875 C 440.074219 647.964844 451.90625 650.777344 453.160156 654.535156 C 453.609375 655.90625 453.125 664.207031 452.167969 674.375 C 438.710938 674.933594 425.128906 675.261719 411.390625 675.261719 C 410.613281 675.261719 409.832031 675.246094 409.039062 675.246094 C 407.691406 654.941406 406.609375 633.550781 405.726562 611.402344 Z M 411.390625 680.257812 C 424.964844 680.257812 438.375 679.890625 451.679688 679.375 C 449.925781 695.804688 447.183594 714.722656 445.070312 717.394531 C 441.53125 721.824219 440.507812 720.722656 433.777344 749.675781 C 427.828125 749.847656 421.859375 750.042969 415.945312 750.058594 C 413.304688 728.933594 411.121094 705.445312 409.382812 680.214844 C 410.054688 680.222656 410.730469 680.257812 411.390625 680.257812 Z M 490.527344 743.878906 C 491.136719 742.921875 496.132812 742.628906 497.375 742.324219 C 497.375 742.324219 497.425781 742.304688 497.460938 742.289062 C 497.230469 743.101562 497.011719 743.921875 496.800781 744.734375 C 494.515625 745.03125 492.273438 745.21875 489.988281 745.480469 C 490.199219 744.691406 490.394531 744.066406 490.527344 743.878906 Z M 597.714844 545.476562 C 593.949219 544.332031 593.832031 544.597656 591.714844 544.300781 C 589.53125 543.988281 586.113281 543.671875 580.820312 541.488281 C 575.515625 539.304688 570.539062 542.117188 570.539062 542.117188 L 576.140625 537.121094 C 576.140625 537.121094 576.453125 533.066406 573.347656 527.480469 C 569.292969 508.472656 544.992188 510.027344 543.132812 510.027344 C 542.574219 510.027344 541.972656 510.046875 541.347656 510.011719 C 543.53125 478.253906 544.242188 448.148438 543.691406 419.855469 C 587.660156 413.675781 628.328125 404.5 664.023438 392.855469 C 670.472656 433.550781 672.917969 478.214844 669.777344 526.761719 C 647.550781 533.980469 623.402344 540.269531 597.714844 545.476562 Z M 668.828125 391.289062 C 687.09375 385.136719 703.957031 378.332031 719.25 370.949219 C 720.15625 377.882812 721.882812 384.28125 725.285156 388.300781 C 733.699219 398.269531 733.699219 397.644531 733.367188 405.441406 C 733.070312 413.210938 733.070312 417.875 734.941406 419.125 C 736.8125 420.378906 740.859375 427.851562 742.710938 430.332031 C 744.582031 432.8125 744.285156 435.621094 747.078125 439.355469 C 749.769531 442.945312 747.722656 444.542969 757.988281 447.421875 C 759.214844 460.117188 760.070312 472.679688 760.585938 485.058594 C 737.539062 500.339844 708.515625 513.796875 674.90625 525.085938 C 677.886719 476.589844 675.347656 431.976562 668.828125 391.289062 Z M 757.355469 240.410156 C 757.355469 240.410156 750.175781 236.042969 748.925781 237.617188 C 747.695312 239.175781 740.859375 247.570312 740.859375 247.570312 C 740.859375 247.570312 738.046875 256.914062 737.421875 257.855469 C 736.8125 258.785156 723.71875 269.375 723.09375 270.304688 C 722.550781 271.167969 721.492188 273.84375 721.0625 277.117188 C 718.714844 271.632812 716.289062 266.25 713.808594 260.996094 C 714.203125 260.984375 714.550781 260.933594 715.015625 260.976562 C 719.070312 261.28125 724.675781 260.707031 725.613281 261.46875 C 726.535156 262.230469 729.347656 260.976562 732.140625 257.550781 C 734.949219 254.128906 733.714844 251.945312 732.140625 246.65625 C 730.566406 241.367188 727.476562 238.554688 726.851562 234.503906 C 726.382812 231.507812 725.429688 230.203125 724.820312 226.316406 C 731.429688 220.199219 736.972656 213.824219 741.398438 207.257812 C 747.765625 218.015625 753.648438 229.109375 758.953125 240.503906 Z M 575 57.257812 C 565.265625 53.457031 555.277344 49.828125 545.222656 46.390625 C 546.414062 45.097656 547.40625 43.765625 548.363281 42.429688 C 556.359375 45.585938 564.265625 48.957031 572.019531 52.636719 C 572.738281 54.136719 573.8125 55.769531 575 57.257812 Z M 540 44.640625 C 504.097656 32.601562 468.371094 23.105469 444.085938 17.121094 C 478.773438 20.558594 512.128906 28.589844 543.570312 40.550781 C 542.53125 41.9375 541.347656 43.308594 540 44.640625 Z M 368.570312 16.988281 C 347.722656 23.164062 318.683594 32.941406 285.769531 47.253906 C 281.960938 44.003906 278.945312 40.59375 276.898438 37.046875 C 306.054688 26.839844 336.753906 19.984375 368.570312 16.988281 Z M 176.058594 113.628906 C 175.847656 114.425781 175.660156 115.167969 175.535156 115.921875 C 175.179688 115.515625 174.804688 115.117188 174.476562 114.703125 C 174.984375 114.324219 175.535156 113.992188 176.058594 113.628906 Z M 174.070312 121.289062 C 173.746094 122.90625 174.382812 123.648438 173.882812 126.148438 C 173.257812 129.261719 173.882812 126.148438 172.011719 127.085938 C 171.554688 127.296875 171.335938 127.40625 171.226562 127.46875 C 171.226562 127.46875 171.167969 127.5 171.148438 127.507812 C 171.105469 127.535156 171.03125 127.570312 170.75 127.695312 C 169.515625 128.320312 168.898438 129.566406 167.664062 129.566406 C 166.410156 129.566406 163.285156 131.4375 163.285156 131.4375 C 163.285156 131.4375 160.484375 133.003906 158.613281 133.003906 C 156.753906 133.003906 157.058594 134.558594 154.890625 134.875 C 152.714844 135.179688 152.089844 135.179688 150.21875 135.179688 C 148.339844 135.179688 150.21875 138.300781 150.21875 138.300781 C 150.21875 138.300781 156.753906 138.910156 159.230469 138.605469 C 161.730469 138.300781 162.667969 137.988281 164.53125 137.363281 C 166.402344 136.742188 170.132812 136.742188 171.707031 135.804688 C 173.25 134.875 176.988281 132.699219 176.988281 132.699219 C 176.988281 132.699219 181.660156 131.757812 182.898438 131.445312 C 183.378906 131.328125 183.742188 130.972656 184.03125 130.582031 C 190.558594 135.921875 198.21875 141 206.851562 145.757812 C 201.992188 150.21875 197.160156 154.746094 192.351562 159.410156 C 168.8125 182.355469 144.910156 209.152344 123.355469 239.632812 C 104.308594 227.324219 90.234375 213.65625 82.144531 198.996094 C 108.695312 166.984375 139.222656 139.992188 170.734375 117.421875 C 171.792969 118.714844 172.902344 120.011719 174.070312 121.289062 Z M 124.910156 246.125 C 140.90625 255.949219 159.882812 264.886719 181.398438 272.707031 C 180.0625 275.390625 180.375 275.59375 180.375 275.59375 C 180.375 275.59375 181.347656 288.0625 180.738281 293.046875 C 180.113281 298.023438 180.417969 309.535156 180.738281 313.292969 C 180.875 314.894531 181.152344 315.621094 181.601562 316.136719 C 171.15625 338.878906 161.882812 362.238281 154.339844 386.101562 C 121.878906 375.089844 93.890625 362.035156 71.78125 347.34375 C 85.382812 310.121094 103.921875 276.332031 124.910156 246.125 Z M 138.277344 527.09375 C 172.453125 539.179688 211.632812 548.929688 254.351562 555.902344 C 255.027344 593.246094 259.328125 629.980469 268.550781 664.582031 C 230.1875 658.648438 194.398438 650.429688 162.507812 640.144531 C 147.6875 604.425781 139.636719 566.652344 138.277344 527.09375 Z M 275.410156 670.648438 C 316.203125 676.566406 359.691406 679.839844 404.40625 680.136719 C 406.144531 705.394531 408.292969 728.925781 410.925781 750.132812 C 373.640625 750 338.390625 746.792969 306.175781 741.949219 C 292.820312 719.816406 282.722656 695.871094 275.410156 670.648438 Z M 432.636719 754.679688 C 432.617188 754.714844 432.617188 754.746094 432.601562 754.78125 C 424.8125 789.019531 432.601562 794.308594 432.601562 794.308594 C 432.601562 794.308594 437.59375 793.679688 438.515625 792.75 C 439.457031 791.828125 445.382812 791.828125 446.929688 790.863281 C 448.488281 789.957031 448.488281 789.628906 449.425781 788.085938 C 450.332031 786.53125 451.59375 785.292969 451.59375 785.292969 C 451.59375 785.292969 455.34375 781.542969 456.585938 779.671875 C 457.824219 777.820312 459.695312 776.566406 460.320312 774.695312 C 460.929688 772.828125 460.320312 772.511719 460.320312 772.511719 C 460.320312 772.511719 461.554688 769.09375 461.878906 767.847656 C 462.191406 766.597656 464.0625 767.222656 465.609375 766.597656 C 467.160156 765.96875 469.03125 765.039062 469.664062 763.785156 C 470.289062 762.550781 471.222656 759.453125 471.222656 757.589844 C 471.222656 755.703125 473.71875 754.78125 475.574219 753.839844 C 477.441406 752.902344 479.625 755.398438 483.984375 755.078125 C 485.890625 754.941406 487.246094 752.960938 488.21875 750.675781 C 490.628906 750.414062 493.007812 750.195312 495.410156 749.914062 C 492.136719 762.261719 488.632812 774.789062 484.917969 787.484375 C 464.847656 791.648438 444.1875 794.25 423.121094 795.203125 C 420.675781 783.152344 418.523438 769.695312 416.59375 755.035156 C 421.902344 755.027344 427.261719 754.839844 432.636719 754.679688 Z M 500.726562 749.339844 C 544.402344 743.667969 589.074219 733.679688 634.296875 719.78125 C 634.3125 719.78125 634.332031 719.800781 634.363281 719.800781 C 634.890625 719.800781 635.40625 719.621094 635.820312 719.316406 C 636.496094 719.105469 637.15625 718.886719 637.835938 718.691406 C 594.667969 750.792969 544.664062 774.121094 490.460938 786.207031 C 494.066406 773.757812 497.519531 761.449219 500.726562 749.339844 Z M 502.132812 744.082031 C 502.359375 743.144531 502.582031 742.230469 502.808594 741.304688 C 504.148438 741.078125 505.46875 740.875 506.398438 740.765625 C 508.894531 740.453125 509.816406 738.878906 513.246094 737.640625 C 516.664062 736.414062 515.742188 736.414062 520.109375 732.664062 C 524.476562 728.933594 509.53125 722.085938 513.246094 718.960938 C 516.996094 715.855469 513.871094 720.519531 517.613281 723.023438 C 521.34375 725.503906 520.109375 723.632812 523.234375 723.632812 C 526.339844 723.632812 526.636719 723.320312 530.375 722.382812 C 534.109375 721.476562 534.109375 722.382812 537.242188 720.511719 C 540.347656 718.65625 537.242188 720.511719 541.609375 717.089844 C 545.957031 713.671875 543.480469 715.550781 547.195312 711.800781 C 550.945312 708.070312 550.003906 708.992188 553.738281 703.703125 C 557.46875 698.410156 556.53125 699.351562 568.996094 691.886719 C 581.449219 684.410156 570.867188 686.910156 570.234375 681.914062 C 569.625 676.9375 571.171875 678.496094 573.355469 674.144531 C 574.746094 671.316406 587.558594 666.113281 598.765625 661.644531 C 617.113281 657.742188 634.636719 653.28125 651.25 648.269531 C 646.113281 669.945312 639.875 692.222656 632.433594 715.152344 C 588.304688 728.671875 544.75 738.410156 502.132812 744.082031 Z M 617.105469 652.367188 C 616.859375 651.757812 616.929688 650.667969 618.496094 648.304688 C 623.160156 641.128906 625.96875 639.578125 626.890625 637.410156 C 627.832031 635.195312 631.257812 631.164062 632.179688 627.738281 C 633.121094 624.300781 633.433594 625.554688 633.121094 623.386719 C 632.808594 621.1875 630.9375 607.484375 634.355469 600.957031 C 637.777344 594.433594 642.457031 592.246094 646.511719 586.011719 C 650.546875 579.761719 650.546875 581.015625 653.671875 577.613281 C 656.777344 574.195312 658.335938 570.125 658.960938 566.390625 C 659.570312 562.65625 658.960938 559.246094 656.480469 556.75 C 653.984375 554.238281 652.425781 556.75 649.007812 553.644531 C 645.585938 550.519531 643.996094 550.222656 635.914062 548.632812 C 627.832031 547.09375 630.625 550.519531 621.914062 549.886719 C 613.203125 549.25 617.867188 551.128906 611.945312 550.519531 C 606.535156 549.960938 610.953125 550.386719 610.089844 547.863281 C 631.003906 543.285156 650.851562 537.976562 669.40625 532.042969 C 666.875 566.90625 661.464844 603.757812 652.511719 642.683594 C 641.144531 646.164062 629.335938 649.40625 617.105469 652.367188 Z M 765.714844 487.480469 C 775.042969 481.148438 783.390625 474.488281 790.644531 467.574219 C 785.632812 498.703125 776.972656 528.640625 765.039062 556.878906 C 766.351562 532.695312 766.496094 509.605469 765.714844 487.480469 Z M 765.453125 481.683594 C 764.988281 470.621094 764.292969 459.796875 763.339844 449.265625 C 769.535156 452.246094 766.410156 455.402344 773.851562 450.882812 C 782.558594 445.59375 787.535156 439.066406 791.921875 433.4375 C 793.03125 432 793.984375 430.613281 794.847656 429.308594 C 794.238281 439.421875 793.214844 449.425781 791.828125 459.347656 C 784.398438 467.132812 775.570312 474.574219 765.453125 481.683594 Z M 161.128906 101.433594 C 162.726562 105.535156 164.980469 109.550781 167.746094 113.46875 C 136.5 135.855469 106.171875 162.550781 79.6875 194.136719 C 79.382812 193.496094 79.121094 192.851562 78.851562 192.199219 C 101.382812 157.800781 129.195312 127.152344 161.128906 101.433594 Z M 26.585938 311.957031 C 35.777344 325.152344 49.03125 337.59375 65.789062 349.085938 C 52.542969 386.378906 44.300781 427.046875 43.53125 470.949219 C 32.410156 461.675781 23.453125 451.90625 16.953125 441.726562 C 15.835938 429.773438 15.191406 417.671875 15.191406 405.441406 C 15.191406 373.21875 19.195312 341.925781 26.585938 311.957031 Z M 68.582031 602.074219 C 92.644531 618.324219 123.269531 632.511719 158.785156 644.113281 C 169.785156 670.167969 184.292969 695.195312 202.3125 719.054688 C 184.910156 713.976562 170.109375 708.957031 158.378906 704.691406 C 157.488281 704.394531 156.667969 704.726562 156.007812 705.265625 C 121.210938 676.285156 91.597656 641.339844 68.582031 602.074219 Z M 344.558594 790.863281 C 331.101562 777.507812 319.445312 763.007812 309.542969 747.484375 C 341.054688 752.046875 375.367188 755.027344 411.585938 755.101562 C 413.488281 769.78125 415.648438 783.238281 418.050781 795.339844 C 413.851562 795.457031 409.65625 795.644531 405.421875 795.644531 C 384.730469 795.644531 364.398438 794.003906 344.558594 790.863281 Z M 648.941406 710.007812 C 645.351562 711.183594 641.777344 712.222656 638.191406 713.359375 C 645.496094 690.464844 651.699219 668.179688 656.75 646.535156 C 686.148438 637.34375 712.578125 626.46875 734.957031 614.015625 C 711.726562 650.582031 682.632812 683.03125 648.941406 710.007812 Z M 648.941406 710.007812 " fill-opacity="1" fill-rule="nonzero"/><path fill="#000000" d="M 433.226562 439.066406 C 432.914062 440.292969 428.25 439.988281 427.015625 442.171875 C 425.761719 444.339844 423.59375 446.226562 427.015625 446.523438 C 430.433594 446.835938 432.304688 446.226562 436.039062 446.523438 C 439.769531 446.835938 436.039062 447.320312 441.015625 446.625 C 445.992188 445.914062 443.824219 447.472656 448.800781 445.304688 C 453.777344 443.121094 456.902344 442.808594 459.695312 442.808594 C 462.488281 442.808594 462.488281 440.152344 463.75 440.988281 C 464.984375 441.867188 465.914062 444.179688 465.914062 440.988281 C 465.914062 437.816406 465.617188 436.636719 460.328125 436.605469 C 455.023438 436.570312 453.480469 436.636719 451.601562 436.605469 C 449.730469 436.570312 445.550781 436.605469 445.550781 436.605469 L 441.023438 435.011719 C 434.792969 435.308594 433.234375 436.605469 433.234375 436.605469 C 433.234375 436.605469 436.046875 438.753906 437.121094 439.066406 C 438.222656 439.363281 433.539062 437.804688 433.226562 439.066406 Z M 433.226562 439.066406 " fill-opacity="1" fill-rule="nonzero"/><path fill="#000000" d="M 477.070312 445.710938 C 479.929688 445.59375 478.375 446.226562 479.929688 445.59375 C 481.488281 444.957031 479.617188 446.515625 481.488281 444.964844 C 483.359375 443.417969 483.359375 443.410156 483.359375 443.410156 C 483.359375 443.410156 483.984375 442.171875 484.917969 442.171875 C 485.855469 442.171875 485.855469 439.8125 484.917969 440.980469 C 483.992188 442.171875 479.332031 440.980469 479.332031 440.980469 C 477.148438 441.226562 475.277344 441.539062 474.980469 442.171875 C 474.648438 442.800781 474.980469 442.800781 474.980469 444.042969 C 474.972656 445.296875 474.191406 445.820312 477.070312 445.710938 Z M 477.070312 445.710938 " fill-opacity="1" fill-rule="nonzero"/><path fill="#000000" d="M 576.851562 112.554688 C 573.347656 112.128906 573.136719 111.511719 571.460938 110.058594 C 569.785156 108.601562 567.871094 108.1875 567.179688 108.1875 C 566.484375 108.1875 565.441406 108.1875 565.441406 108.1875 C 563.988281 110.25 563.359375 111.722656 563.15625 112.34375 C 562.945312 112.960938 560.464844 114.617188 560.464844 114.617188 C 560.464844 114.617188 560.253906 114.425781 558.796875 114.617188 C 557.359375 114.832031 554.253906 110.886719 553.40625 114.617188 C 552.558594 118.351562 551.339844 117.945312 553.40625 120.441406 C 555.472656 122.9375 560.484375 125.640625 562.75 127.085938 C 565.035156 128.542969 564.402344 129.996094 569.617188 130.605469 C 574.804688 131.234375 572.722656 133.730469 576.851562 129.371094 C 581.015625 125.003906 580.390625 128.332031 581.238281 122.9375 C 582.066406 117.53125 582.660156 118.183594 581.238281 115.863281 C 579.78125 113.59375 580.390625 112.96875 576.851562 112.554688 Z M 576.851562 112.554688 " fill-opacity="1" fill-rule="nonzero"/><path fill="#000000" d="M 354.328125 104.074219 C 354.226562 104.226562 354.242188 104.277344 354.328125 104.074219 Z M 354.328125 104.074219 " fill-opacity="1" fill-rule="nonzero"/><path fill="#000000" d="M 354.46875 103.097656 C 354.46875 103.625 354.394531 103.902344 354.328125 104.074219 C 354.46875 103.828125 354.917969 103.386719 356.324219 103.097656 C 359.429688 102.472656 357.890625 103.726562 359.429688 102.472656 C 360.988281 101.238281 358.507812 102.472656 360.988281 101.238281 C 363.484375 100 362.859375 102.472656 363.484375 100 C 364.109375 97.503906 362.5625 99.671875 363.484375 96.414062 C 364.421875 93.144531 363.179688 95.328125 364.421875 93.144531 C 365.660156 90.96875 364.738281 92.832031 365.660156 90.96875 C 366.589844 89.101562 363.230469 89.40625 363.230469 89.40625 C 363.230469 89.40625 362.554688 89.710938 360.980469 91.273438 C 359.421875 92.832031 356.316406 93.144531 355.070312 94.078125 C 353.835938 95.007812 355.070312 91.902344 353.835938 95.007812 C 352.582031 98.121094 353.210938 98.984375 353.835938 101.042969 C 354.46875 103.097656 354.46875 100.925781 354.46875 103.097656 Z M 354.46875 103.097656 " fill-opacity="1" fill-rule="nonzero"/><path fill="#000000" d="M 389.949219 151.054688 C 388.402344 149.1875 389.003906 147.628906 386.203125 147.628906 C 383.417969 147.628906 383.417969 147.628906 383.417969 147.628906 C 383.417969 147.628906 380.3125 149.507812 380.007812 151.359375 C 379.691406 153.230469 377.695312 152.300781 378.066406 154.164062 C 378.441406 156.03125 375.519531 154.476562 378.066406 157.589844 C 380.617188 160.695312 382.171875 160.078125 383.425781 161.3125 C 384.660156 162.550781 382.179688 164.429688 383.425781 165.054688 C 384.660156 165.671875 381.546875 167.230469 386.210938 165.054688 C 390.898438 162.871094 387.472656 165.976562 390.898438 162.871094 C 394.328125 159.757812 394.015625 162.550781 394.328125 159.757812 C 394.640625 156.957031 396.511719 157.582031 394.328125 155.398438 C 392.125 153.230469 391.507812 152.917969 389.949219 151.054688 Z M 389.949219 151.054688 " fill-opacity="1" fill-rule="nonzero"/></svg>